<svg id="Layer_1" data-name="Layer 1" xmlns="http://www.w3.org/2000/svg" viewBox="0 0 48.25 48.63"><defs><style>.cls-1{fill:#bd8647;}</style></defs><title>1</title><g id="AbJFbm.tif"><path class="cls-1" d="M22.57.71H26c.1,0,.19.06.29.07,1.12.18,2.26.28,3.36.54A23,23,0,0,1,42.55,9.38a22.94,22.94,0,0,1,5.09,12c0,.36.11.72.16,1.07v3.45c0,.1-.06.19-.08.29-.14,1-.22,2-.43,2.94a23.15,23.15,0,0,1-8.14,13.27,23,23,0,0,1-12.1,5.13l-1,.15H22.57l-.29-.08c-1.12-.18-2.25-.28-3.35-.54A22.94,22.94,0,0,1,6.05,39,22.87,22.87,0,0,1,1,27c0-.36-.1-.71-.15-1.07V22.48a1.53,1.53,0,0,0,.07-.29,22.06,22.06,0,0,1,1-5.09A23.25,23.25,0,0,1,9.53,5.9a23.08,23.08,0,0,1,12-5C21.86.82,22.22.76,22.57.71ZM32.89,7.92l-.67-.09-1.71-.11a17.1,17.1,0,0,0-4,.12,6.54,6.54,0,0,0-4.77,3.32,8.16,8.16,0,0,0-1,3.83c0,1.44,0,2.89,0,4.34v.46H15.71v5.9h5.07v15h6.11v-15h5l.76-5.9H26.9c0-1.52-.06-3,0-4.46a2,2,0,0,1,1.84-2,4.55,4.55,0,0,1,1-.09c.92,0,1.83,0,2.74,0l.42,0Z"/></g></svg>