<svg id="Layer_1" data-name="Layer 1" xmlns="http://www.w3.org/2000/svg" viewBox="0 0 73.25 53"><defs><style>.cls-1{fill:#bd8747;}</style></defs><title>1</title><g id="EPr0Nj.tif"><path class="cls-1" d="M.5,46.28a5,5,0,0,1,2-3.05c1.62-1.11,3.72-1.15,5.68-1.16H62.74c4,0,10.37-.31,10.1,5.42a5,5,0,0,1-2.26,3.91c-1.57,1-3.55,1-5.41,1H8a9.91,9.91,0,0,1-5.24-1A5,5,0,0,1,.39,47.39,4.65,4.65,0,0,1,.5,46.28Z"/><path class="cls-1" d="M68.53,1a5.8,5.8,0,0,1,2.8,1.32,5.18,5.18,0,0,1,.27,6.81c-1.71,1.85-4.53,2-7,2H8.48C6.22,11.09,3.76,11,2,9.55a5,5,0,0,1,0-7.2C3.73.84,6.23.76,8.51.76L62.91.69A26.93,26.93,0,0,1,68.53,1Z"/><path class="cls-1" d="M.51,25.62a4.56,4.56,0,0,1,1.28-2.44c1.77-1.69,4.47-1.79,6.92-1.79l56.17,0c3.66,0,8.33.77,7.94,5.58a5,5,0,0,1-2.33,3.79,9.87,9.87,0,0,1-5.23,1H8.13c-2,0-4.24-.05-5.88-1.27A5,5,0,0,1,.51,25.62Z"/></g></svg>