<svg id="Layer_1" data-name="Layer 1" xmlns="http://www.w3.org/2000/svg" viewBox="0 0 48.13 48.63"><defs><style>.cls-1{fill:#bd8647;}</style></defs><title>1</title><g id="ZHF7nR.tif"><path class="cls-1" d="M47.56,23.38v1.84l0,.29c0,.39,0,.79-.08,1.17a22.13,22.13,0,0,1-1,4.71,23.46,23.46,0,0,1-7,10.62A23.18,23.18,0,0,1,31,46.78a22.73,22.73,0,0,1-5.3,1c-.23,0-.45,0-.68.07H23.16c-.24,0-.48-.06-.72-.07a21.8,21.8,0,0,1-3.68-.55A23.31,23.31,0,0,1,8.35,41.78,23.47,23.47,0,0,1,.58,23.38a24.09,24.09,0,0,1,.28-2.81A23.47,23.47,0,0,1,22.93.83a22.91,22.91,0,0,1,5,.29A23.28,23.28,0,0,1,41.85,8.93a23,23,0,0,1,5.22,10.51,19.2,19.2,0,0,1,.46,3.69A2.13,2.13,0,0,0,47.56,23.38ZM26.11,21.13h-.06V19.34c0-.34,0-.34-.35-.34H21.45c-.35,0-.36,0-.36.34q0,8,0,16c0,.32,0,.33.32.33h4.25c.38,0,.38,0,.38-.38V27.1c0-.2,0-.4,0-.6a4.26,4.26,0,0,1,.42-1.76,2.62,2.62,0,0,1,1.89-1.48,3.81,3.81,0,0,1,1.17-.07,2.33,2.33,0,0,1,2.07,1.5,3.76,3.76,0,0,1,.24.74A6.39,6.39,0,0,1,32,27v8.33c0,.34,0,.34.35.34H37c.13,0,.16,0,.17-.16a2.26,2.26,0,0,0,0-.26c0-3.21,0-6.42,0-9.63,0-.44,0-.88,0-1.31A7.61,7.61,0,0,0,36.59,22,5.2,5.2,0,0,0,33,18.74a6.78,6.78,0,0,0-2.69-.2A5.74,5.74,0,0,0,26.23,21Zm-8.32,6.21h0v-8c0-.33,0-.33-.32-.33H13c-.34,0-.34,0-.34.35v1.78q0,7.08,0,14.16c0,.38,0,.38.39.38h4.58c.13,0,.16-.05.17-.17V27.34Zm.44-13.6a3,3,0,1,0-3.05,3.06A3,3,0,0,0,18.23,13.74Z"/></g></svg>