<?xml version="1.0" encoding="utf-8"?>
<!-- Generator: Adobe Illustrator 22.0.1, SVG Export Plug-In . SVG Version: 6.00 Build 0)  -->
<svg version="1.1" id="Layer_1" xmlns="http://www.w3.org/2000/svg" xmlns:xlink="http://www.w3.org/1999/xlink" x="0px" y="0px"
	 viewBox="0 0 103.8 46.5" style="enable-background:new 0 0 103.8 46.5;" xml:space="preserve">
<style type="text/css">
	.st0{fill:#717071;}
	.st1{fill:#BD8648;}
	.st2{fill:#FFFFFF;}
</style>
<g id="Logo_White_FORGE_no_tagline">
	<path id="inside_gear" class="st0" d="M35.4,32.7l0.6-0.2c0-0.4,0-0.7-0.1-1.1l-0.6-0.1l-0.3-1l0.4-0.5c-0.2-0.3-0.3-0.6-0.6-0.9
		L34.2,29l-0.7-0.8l0.2-0.6c-0.3-0.2-0.6-0.5-0.9-0.6l-0.5,0.4l-1-0.4l-0.1-0.6c-0.4-0.1-0.7-0.2-1.1-0.2l-0.3,0.5h-1.1l-0.3-0.5
		c-0.4,0-0.7,0.1-1.1,0.2l-0.1,0.6l-1,0.4L25.8,27c-0.3,0.2-0.6,0.4-0.9,0.7l0.2,0.6L24.4,29l-0.6-0.1c-0.2,0.3-0.4,0.6-0.5,1
		l0.4,0.5l-0.3,1l-0.6,0.1c-0.1,0.4-0.1,0.7-0.1,1.1l0.6,0.2l0.1,1.1l-0.5,0.4c0.1,0.4,0.2,0.7,0.3,1h0.6l0.5,0.9L24,36.7
		c0.2,0.3,0.5,0.6,0.7,0.8l0.6-0.3l0.9,0.6l-0.1,0.6c0.3,0.2,0.7,0.3,1,0.4l0.4-0.5l1.1,0.2l0.2,0.6c0.2,0,0.3,0,0.5,0
		c0.2,0,0.4,0,0.6,0l0.2-0.6l1.1-0.2l0.4,0.5c0.3-0.1,0.7-0.3,1-0.5l-0.1-0.6l0.9-0.6l0.6,0.2c0.3-0.3,0.5-0.5,0.7-0.8l-0.3-0.5
		l0.5-0.9h0.6c0.1-0.3,0.2-0.7,0.3-1l-0.5-0.4L35.4,32.7z M29.3,36.5c-2.1,0-3.8-1.7-3.8-3.8c0-2.1,1.7-3.8,3.8-3.8
		c2.1,0,3.8,1.7,3.8,3.8c0,0,0,0,0,0C33.2,34.8,31.4,36.5,29.3,36.5z"/>
	<path class="st1" d="M3.7,2c-0.2-0.2-0.2-0.6,0-0.8C3.8,1.1,3.9,1,4,1h9.1c0.3,0,0.5,0.2,0.5,0.5c0,0.4-0.2,0.6-0.5,0.6H9.2v15.2
		c0,0.3-0.2,0.5-0.6,0.5c-0.4,0-0.6-0.2-0.6-0.5V2.1H4C3.9,2.1,3.8,2.1,3.7,2z"/>
	<path class="st1" d="M20.8,17.3V1.5C20.8,1.2,21,1,21.4,1h8.2C29.8,1,30,1.2,30,1.6c0,0.1,0,0.3-0.1,0.4c-0.1,0.1-0.2,0.2-0.3,0.2
		H22v6.7h3.6c0.1,0,0.3,0.1,0.3,0.2c0.1,0.1,0.1,0.2,0.1,0.4c0,0.3-0.2,0.5-0.5,0.5H22v6.8h7.6c0.1,0,0.3,0.1,0.3,0.2
		C30,17,30,17.1,30,17.3c0,0.4-0.2,0.5-0.5,0.5h-8.2C21,17.8,20.8,17.6,20.8,17.3z"/>
	<path class="st1" d="M37.4,17.3V1.6C37.4,1.2,37.6,1,38,1c0.3,0,0.6,0.3,1,0.9l4.2,8.2L47.3,2C47.7,1.4,48,1,48.3,1
		c0.4,0,0.6,0.2,0.6,0.6v15.7c0,0.3-0.2,0.5-0.6,0.5s-0.6-0.2-0.6-0.5V3.7l-4.1,7.8c-0.2,0.3-0.4,0.5-0.5,0.5
		c-0.2,0-0.4-0.2-0.5-0.5l-4.1-7.8v13.7c0,0.3-0.2,0.5-0.6,0.5S37.4,17.6,37.4,17.3z"/>
	<path class="st1" d="M57.5,17.3V1.5c0-0.3,0.2-0.5,0.5-0.5h4.1c1.4,0,2.5,0.4,3.3,1.2s1.3,2,1.3,3.6v0.3c0,1.7-0.4,2.9-1.3,3.6
		c-0.8,0.8-2,1.2-3.4,1.2h-3.5v6.4c0,0.3-0.2,0.5-0.6,0.5S57.5,17.6,57.5,17.3z M58.7,9.9h3.5c1.1,0,2-0.3,2.6-0.9
		c0.6-0.6,0.9-1.6,0.9-2.8V5.9c0-1.2-0.3-2.2-0.9-2.8c-0.6-0.6-1.5-0.9-2.6-0.9h-3.5V9.9z"/>
	<path class="st1" d="M74.4,13.1V1.5C74.4,1.2,74.6,1,75,1s0.6,0.2,0.6,0.5v11.6c0,1.2,0.3,2.2,0.9,2.8c0.6,0.6,1.5,0.9,2.6,0.9
		c1.1,0,2-0.3,2.6-0.9s0.9-1.5,0.9-2.8V1.5c0-0.3,0.2-0.5,0.6-0.5s0.6,0.2,0.6,0.5v11.6c0,1.7-0.4,2.9-1.3,3.7s-2,1.2-3.4,1.2
		c-1.4,0-2.5-0.4-3.4-1.2C74.8,16,74.4,14.8,74.4,13.1z"/>
	<path class="st1" d="M91.4,15.6c0-0.2,0.1-0.3,0.2-0.4c0.1-0.1,0.2-0.2,0.4-0.2c0.1,0,0.2,0.1,0.4,0.3l0.6,0.7
		c0.2,0.2,0.6,0.5,1.1,0.7c0.6,0.2,1.2,0.3,1.8,0.3c1.2,0,2.1-0.3,2.7-0.9c0.6-0.6,0.9-1.4,0.9-2.6c0-0.9-0.2-1.6-0.6-2.1
		c-0.3-0.5-0.8-1-1.4-1.2c-0.6-0.2-1.2-0.5-1.8-0.8C95,9,94.4,8.8,93.8,8.5c-0.6-0.3-1.1-0.7-1.4-1.2C92,6.7,91.8,6,91.8,5.1
		c0-0.8,0.1-1.5,0.4-2c0.3-0.5,0.7-1,1.2-1.3c0.5-0.3,1-0.5,1.5-0.6C95.4,1.1,95.9,1,96.5,1c0.9,0,1.7,0.1,2.6,0.4
		c0.8,0.3,1.2,0.6,1.2,0.9c0,0.2-0.1,0.3-0.2,0.4C100,2.9,99.8,3,99.7,3c-0.1,0-0.2-0.1-0.5-0.2c-0.4-0.2-0.7-0.3-1.1-0.4
		c-0.5-0.2-1.1-0.2-1.6-0.2c-1,0-1.8,0.2-2.5,0.7s-1,1.2-1,2.2c0,0.6,0.1,1.2,0.4,1.6c0.3,0.4,0.7,0.8,1.1,1c0.5,0.2,1,0.4,1.5,0.6
		c0.5,0.2,1.1,0.4,1.6,0.6c0.5,0.2,1,0.5,1.5,0.8c0.5,0.4,0.9,0.9,1.1,1.4c0.3,0.6,0.4,1.4,0.4,2.2c0,1.6-0.4,2.7-1.3,3.5
		c-0.8,0.8-2,1.2-3.4,1.2c-1.3,0-2.4-0.3-3.3-0.8C91.8,16.5,91.4,16,91.4,15.6z"/>
	<path id="outside_gear" class="st2" d="M39.8,32.8l1-0.4c0-0.6-0.1-1.3-0.2-1.9l-1-0.2l-0.6-1.8l0.7-0.8c-0.3-0.6-0.6-1.1-1-1.6
		l-1,0.2L36.4,25l0.3-1c-0.5-0.4-1-0.8-1.5-1.1l-0.9,0.6l-1.7-0.7l-0.1-1c-0.6-0.2-1.2-0.3-1.8-0.4l-0.5,0.9h-1.8l-0.5-0.9
		c-0.6,0.1-1.2,0.2-1.8,0.4l-0.1,1.1l-1.7,0.8l-0.8-0.6c-0.5,0.3-1,0.7-1.5,1.1l0.3,1l-1.2,1.4l-1-0.2c-0.4,0.5-0.7,1.1-0.9,1.6
		l0.7,0.8l-0.6,1.8l-1,0.2c-0.1,0.6-0.2,1.2-0.2,1.9l1,0.4l0.2,1.8l-0.8,0.6c0.1,0.6,0.3,1.2,0.6,1.8h1.1l0.9,1.6l-0.5,0.9
		c0.4,0.5,0.8,1,1.3,1.4l1-0.4l1.5,1.1l-0.1,1c0.6,0.3,1.1,0.6,1.7,0.8l0.7-0.8l1.8,0.4l0.3,1c0.3,0,0.6,0,0.9,0c0.3,0,0.7,0,1,0
		l0.3-1l1.8-0.4l0.7,0.8c0.6-0.2,1.2-0.5,1.7-0.8l-0.1-1.1l1.5-1.1l0.9,0.4c0.5-0.4,0.9-0.9,1.3-1.4l-0.5-0.9l0.9-1.6h1
		c0.2-0.6,0.4-1.2,0.6-1.8l-0.9-0.6L39.8,32.8z M29.3,40.9c-4.5,0-8.2-3.7-8.2-8.2c0-4.5,3.7-8.2,8.2-8.2c4.5,0,8.2,3.7,8.2,8.2
		c0,0,0,0,0,0C37.5,37.2,33.9,40.9,29.3,40.9L29.3,40.9z"/>
	<path class="st2" d="M3.8,42.9V22.7c0-0.2,0.1-0.4,0.3-0.5C4.2,22,4.4,22,4.6,22h10.5c0.2,0,0.4,0.1,0.5,0.3
		c0.1,0.2,0.2,0.4,0.2,0.6c0,0.2-0.1,0.5-0.2,0.7c-0.1,0.2-0.3,0.3-0.5,0.3H5.7v8.1h4.7c0.2,0,0.4,0.1,0.5,0.3
		c0.1,0.2,0.2,0.4,0.2,0.6c0,0.5-0.2,0.8-0.7,0.8H5.7v9.3c0,0.2-0.1,0.4-0.3,0.5c-0.2,0.1-0.4,0.2-0.7,0.2
		C4.1,43.6,3.8,43.4,3.8,42.9z"/>
	<path class="st2" d="M46,42.9V22.7c0-0.4,0.2-0.7,0.7-0.7H52c1.9,0,3.5,0.5,4.6,1.4c1.2,0.9,1.8,2.4,1.8,4.5c0,3.3-1.5,5.2-4.6,5.7
		l4.6,8.8c0.1,0.1,0.1,0.2,0.1,0.4c0,0.3-0.1,0.5-0.4,0.7c-0.2,0.2-0.5,0.3-0.8,0.3c-0.4,0-0.7-0.3-1-1l-4.6-8.9H48v9.1
		c0,0.2-0.1,0.4-0.3,0.6c-0.2,0.1-0.4,0.2-0.7,0.2c-0.2,0-0.5-0.1-0.7-0.2C46.1,43.3,46,43.1,46,42.9z M48,32.1h4
		c3,0,4.4-1.4,4.4-4.2c0-2.7-1.5-4.1-4.4-4.1h-4L48,32.1z"/>
	<path class="st2" d="M67.4,37.5v-9.2c0-2.2,0.6-3.8,1.7-4.8s2.6-1.5,4.5-1.5c1.9,0,3.4,0.5,4.5,1.4c1.1,1,1.7,2.2,1.7,3.7
		c0,0.7-0.3,1-1,1c-0.6,0-1-0.2-1-0.7c-0.3-2.4-1.7-3.6-4.2-3.6c-2.8,0-4.2,1.5-4.2,4.5v9.2c0,1.5,0.4,2.7,1.1,3.4
		c0.7,0.8,1.8,1.1,3.1,1.1c1.3,0,2.4-0.4,3.1-1.1c0.7-0.8,1.1-1.9,1.1-3.4V34h-4c-0.2,0-0.4-0.1-0.5-0.3c-0.1-0.2-0.2-0.4-0.2-0.6
		c0-0.2,0.1-0.4,0.2-0.6c0.1-0.2,0.3-0.3,0.5-0.3H79c0.5,0,0.7,0.3,0.7,0.8v4.4c0,2.2-0.6,3.8-1.7,4.8c-1.1,1-2.6,1.5-4.5,1.5
		c-1.9,0-3.4-0.5-4.5-1.5S67.4,39.7,67.4,37.5z"/>
	<path class="st2" d="M89.6,42.9V22.8c0-0.2,0.1-0.4,0.3-0.5c0.2-0.1,0.4-0.2,0.6-0.2H101c0.5,0,0.7,0.3,0.7,0.9
		c0,0.2-0.1,0.5-0.2,0.7c-0.1,0.2-0.3,0.3-0.5,0.3h-9.5V32h4.6c0.2,0,0.4,0.1,0.5,0.3c0.1,0.2,0.2,0.4,0.2,0.6
		c0,0.5-0.2,0.8-0.7,0.8h-4.6v8.2h9.5c0.2,0,0.4,0.1,0.5,0.3c0.1,0.2,0.2,0.4,0.2,0.7c0,0.6-0.2,0.9-0.7,0.9H90.4
		c-0.2,0-0.4-0.1-0.6-0.2C89.6,43.3,89.5,43.1,89.6,42.9z"/>
</g>
</svg>
