<svg id="Logo_no_tagline" data-name="Logo no tagline" xmlns="http://www.w3.org/2000/svg" viewBox="0 0 1024 474"><defs><style>.cls-1{fill:#bd8648;}.cls-2{fill:#4e4c4d;}.cls-3{fill:#717071;}</style></defs><title>Tempus Forge_Final Logo</title><path class="cls-1" d="M18.2,36.63a6.24,6.24,0,0,1,0-7.85,4.39,4.39,0,0,1,3.46-1.61H113.1q4.84,0,4.84,5.31,0,5.77-4.84,5.77H73.38V190.87q0,5.08-5.77,5.08t-5.77-5.08V38.25H21.66A4.37,4.37,0,0,1,18.2,36.63Z"/><path class="cls-1" d="M190.44,190.87V32.25q0-5.09,5.54-5.08h82.2q4.85,0,4.85,5.31a6.25,6.25,0,0,1-1.39,4,4.27,4.27,0,0,1-3.46,1.73H202v67.88H238.7a4.37,4.37,0,0,1,3.46,1.62,5.86,5.86,0,0,1,1.39,3.92q0,5.08-4.85,5.08H202v68.12h76.19a4.24,4.24,0,0,1,3.46,1.73,6.23,6.23,0,0,1,1.39,4q0,5.31-4.85,5.31H196Q190.45,196,190.44,190.87Z"/><path class="cls-1" d="M357.37,190.87V32.71q0-5.54,5.78-5.54,4.61,0,9.69,9.46l42.26,82.66,42.48-82.66q5.07-9.47,9.7-9.46c3.84,0,5.77,1.85,5.77,5.54V190.87c0,3.39-1.93,5.08-5.77,5.08s-5.78-1.69-5.78-5.08V53.49L420.41,132c-1.85,3.24-3.62,4.85-5.31,4.85-2,0-3.78-1.61-5.31-4.85L368.92,53.26V190.87c0,3.39-1.93,5.08-5.77,5.08S357.37,194.26,357.37,190.87Z"/><path class="cls-1" d="M560.33,190.87V32c0-2.93,1.76-4.54,5.31-4.85H607.2q21,0,33.71,11.66t12.7,36.59V78q0,24.95-12.82,36.72T607,126.45H571.87v64.42c0,3.39-1.93,5.08-5.77,5.08S560.33,194.26,560.33,190.87Zm11.54-75H607q16.86,0,26-9.35t9.12-28.29V75.66q0-18.7-9.12-28.06t-26-9.35H571.87Z"/><path class="cls-1" d="M730.26,148.85V32c0-3.24,1.92-4.85,5.77-4.85s5.77,1.61,5.77,4.85V148.85q0,18.71,9.12,28.05t26,9.35q16.85,0,26.09-9.35t9.24-28.05V32c0-3.24,1.92-4.85,5.77-4.85s5.77,1.61,5.77,4.85V148.85q0,25.17-12.81,36.82T776.9,197.33q-21.24,0-33.94-11.66T730.26,148.85Z"/><path class="cls-1" d="M901.12,173.32a6.72,6.72,0,0,1,1.73-4.38,4.76,4.76,0,0,1,3.58-2.08c.92,0,2.31,1,4.15,3l6.24,6.69q3.46,3.7,11.2,6.7a49.21,49.21,0,0,0,17.89,3q17.77,0,27.25-8.77t9.46-25.86q0-12.93-5.77-21.47a32.94,32.94,0,0,0-14.32-12.24Q954,114.22,944,110.29t-18.59-7.74A33.33,33.33,0,0,1,911,90q-5.76-8.77-5.77-22.17,0-12,4.39-20.43a30.4,30.4,0,0,1,11.78-12.7,53.92,53.92,0,0,1,14.89-6,70.9,70.9,0,0,1,16-1.73,79.64,79.64,0,0,1,25.74,4Q990,35,990,40.1a7.7,7.7,0,0,1-1.62,4.38,4.52,4.52,0,0,1-3.69,2.31q-1.16,0-5.08-2.19a59.11,59.11,0,0,0-11.2-4.39A56.35,56.35,0,0,0,952.14,38q-15,0-25.16,6.58T916.82,66.88q0,9.47,4.27,15.82a29,29,0,0,0,11.08,9.81,111.39,111.39,0,0,0,15,6.23q8.19,2.78,16.51,6.24a70.87,70.87,0,0,1,15.12,8.54A36.42,36.42,0,0,1,989.89,128q4.27,9.36,4.28,22.51,0,23.55-12.82,35.21t-34.29,11.66q-19.86,0-32.9-8.54T901.12,173.32Z"/><path id="outside_gear" data-name="outside gear" class="cls-2" d="M337.84,346.2l5.58-2.48a63.1,63.1,0,0,0-1.21-11l-6.09-1.29-3.36-10.32,4.1-4.57a67.55,67.55,0,0,0-5.57-9.54l-6.09,1.3-7.27-8.08,1.87-5.83a66.26,66.26,0,0,0-9-6.43l-5.05,3.64-9.92-4.42-.63-6.09a63.78,63.78,0,0,0-10.83-2.21l-3.13,5.37H270.41L267.36,279a67.52,67.52,0,0,0-10.8,2.33l-.66,6.23-9.92,4.4-5-3.59a70.54,70.54,0,0,0-8.9,6.55L234,300.8l-7.27,8.07-6-1.26a63.11,63.11,0,0,0-5.49,9.59l4.17,4.63-3.37,10.34-6,1.27a65.76,65.76,0,0,0-1.09,11l5.68,2.5,1.12,10.8-4.94,3.62a67.1,67.1,0,0,0,3.45,10.49h6.26l5.43,9.43L223,386.59a69.6,69.6,0,0,0,7.44,8.19l5.69-2.53,8.79,6.38-.63,6.09a66.16,66.16,0,0,0,10.11,4.46l4.2-4.66,10.63,2.27,1.87,5.83c1.72.12,3.45.18,5.17.18,2,0,3.94-.06,5.89-.23l1.93-5.95,10.63-2.24,4.1,4.54a65.21,65.21,0,0,0,10.06-4.54l-.63-6.21,8.79-6.38,5.57,2.47a63.34,63.34,0,0,0,7.36-8.24l-3.1-5.4,5.43-9.4h6.15a68.7,68.7,0,0,0,3.33-10.54l-5-3.68Zm-61.6,38.27a38.63,38.63,0,1,1,38.62-38.62A38.63,38.63,0,0,1,276.24,384.47Zm61.6-38.27,5.58-2.48a63.1,63.1,0,0,0-1.21-11l-6.09-1.29-3.36-10.32,4.1-4.57a67.55,67.55,0,0,0-5.57-9.54l-6.09,1.3-7.27-8.08,1.87-5.83a66.26,66.26,0,0,0-9-6.43l-5.05,3.64-9.92-4.42-.63-6.09a63.78,63.78,0,0,0-10.83-2.21l-3.13,5.37H270.41L267.36,279a67.52,67.52,0,0,0-10.8,2.33l-.66,6.23-9.92,4.4-5-3.59a70.54,70.54,0,0,0-8.9,6.55L234,300.8l-7.27,8.07-6-1.26a63.11,63.11,0,0,0-5.49,9.59l4.17,4.63-3.37,10.34-6,1.27a65.76,65.76,0,0,0-1.09,11l5.68,2.5,1.12,10.8-4.94,3.62a67.1,67.1,0,0,0,3.45,10.49h6.26l5.43,9.43L223,386.59a69.6,69.6,0,0,0,7.44,8.19l5.69-2.53,8.79,6.38-.63,6.09a66.16,66.16,0,0,0,10.11,4.46l4.2-4.66,10.63,2.27,1.87,5.83c1.72.12,3.45.18,5.17.18,2,0,3.94-.06,5.89-.23l1.93-5.95,10.63-2.24,4.1,4.54a65.21,65.21,0,0,0,10.06-4.54l-.63-6.21,8.79-6.38,5.57,2.47a63.34,63.34,0,0,0,7.36-8.24l-3.1-5.4,5.43-9.4h6.15a68.7,68.7,0,0,0,3.33-10.54l-5-3.68Zm-61.6,38.27a38.63,38.63,0,1,1,38.62-38.62A38.63,38.63,0,0,1,276.24,384.47Zm105.3-38,9.57-4.25A112,112,0,0,0,389,323.41l-10.43-2.21-5.74-17.64,7-7.82a115.12,115.12,0,0,0-9.57-16.29l-10.43,2.21L347.5,267.87l3.21-10a114.29,114.29,0,0,0-15.34-11l-8.62,6.26-16.95-7.55-1.09-10.41a114.26,114.26,0,0,0-18.53-3.82l-5.32,9.23H266.3l-5.23-9.05a108.42,108.42,0,0,0-18.48,4l-1.12,10.6-16.95,7.56-8.47-6.15a113.89,113.89,0,0,0-15.23,11.2l3.27,10.12-12.41,13.82-10.23-2.19a113.08,113.08,0,0,0-9.39,16.41l7.15,7.93-5.74,17.67-10.26,2.16a113.38,113.38,0,0,0-1.84,18.84l9.71,4.31L173,366.28l-8.47,6.15a112.08,112.08,0,0,0,5.92,18h10.66l9.31,16.06-5.23,9.05a112.31,112.31,0,0,0,12.7,14l9.74-4.34,15,10.92-1.12,10.43a116.09,116.09,0,0,0,17.3,7.61l7.15-8L264.2,450l3.22,9.94c2.9.23,5.86.35,8.82.35,3.42,0,6.75-.14,10.08-.43l3.28-10.14,18.19-3.85,7,7.78A113.61,113.61,0,0,0,332,445.9l-1.09-10.61,15-10.91,9.56,4.25a119.79,119.79,0,0,0,12.59-14.11l-5.35-9.22L372,389.21h10.49a113.8,113.8,0,0,0,5.72-18l-8.62-6.29Zm-105.3,82a82.65,82.65,0,1,1,82.63-82.63A82.64,82.64,0,0,1,276.24,428.48ZM331.29,307l-6.09,1.3-7.27-8.08,1.87-5.83a66.26,66.26,0,0,0-9-6.43l-5.05,3.64-9.92-4.42-.63-6.09a63.78,63.78,0,0,0-10.83-2.21l-3.13,5.37H270.41L267.36,279a67.52,67.52,0,0,0-10.8,2.33l-.66,6.23-9.92,4.4-5-3.59a70.54,70.54,0,0,0-8.9,6.55L234,300.8l-7.27,8.07-6-1.26a63.11,63.11,0,0,0-5.49,9.59l4.17,4.63-3.37,10.34-6,1.27a65.76,65.76,0,0,0-1.09,11l5.68,2.5,1.12,10.8-4.94,3.62a67.1,67.1,0,0,0,3.45,10.49h6.26l5.43,9.43L223,386.59a69.6,69.6,0,0,0,7.44,8.19l5.69-2.53,8.79,6.38-.63,6.09a66.16,66.16,0,0,0,10.11,4.46l4.2-4.66,10.63,2.27,1.87,5.83c1.72.12,3.45.18,5.17.18,2,0,3.94-.06,5.89-.23l1.93-5.95,10.63-2.24,4.1,4.54a65.21,65.21,0,0,0,10.06-4.54l-.63-6.21,8.79-6.38,5.57,2.47a63.34,63.34,0,0,0,7.36-8.24l-3.1-5.4,5.43-9.4h6.15a68.7,68.7,0,0,0,3.33-10.54l-5-3.68,1.12-10.8,5.58-2.48a63.1,63.1,0,0,0-1.21-11l-6.09-1.29-3.36-10.32,4.1-4.57A67.55,67.55,0,0,0,331.29,307Zm-55.05,77.47a38.63,38.63,0,1,1,38.62-38.62A38.63,38.63,0,0,1,276.24,384.47Z"/><path id="inside_gear" data-name="inside gear" class="cls-3" d="M337.84,346.2l5.58-2.48a63.1,63.1,0,0,0-1.21-11l-6.09-1.29-3.36-10.32,4.1-4.57a67.55,67.55,0,0,0-5.57-9.54l-6.09,1.3-7.27-8.08,1.87-5.83a66.26,66.26,0,0,0-9-6.43l-5.05,3.64-9.92-4.42-.63-6.09a63.78,63.78,0,0,0-10.83-2.21l-3.13,5.37H270.41L267.36,279a67.52,67.52,0,0,0-10.8,2.33l-.66,6.23-9.92,4.4-5-3.59a70.54,70.54,0,0,0-8.9,6.55L234,300.8l-7.27,8.07-6-1.26a63.11,63.11,0,0,0-5.49,9.59l4.17,4.63-3.37,10.34-6,1.27a65.76,65.76,0,0,0-1.09,11l5.68,2.5,1.12,10.8-4.94,3.62a67.1,67.1,0,0,0,3.45,10.49h6.26l5.43,9.43L223,386.59a69.6,69.6,0,0,0,7.44,8.19l5.69-2.53,8.79,6.38-.63,6.09a66.16,66.16,0,0,0,10.11,4.46l4.2-4.66,10.63,2.27,1.87,5.83c1.72.12,3.45.18,5.17.18,2,0,3.94-.06,5.89-.23l1.93-5.95,10.63-2.24,4.1,4.54a65.21,65.21,0,0,0,10.06-4.54l-.63-6.21,8.79-6.38,5.57,2.47a63.34,63.34,0,0,0,7.36-8.24l-3.1-5.4,5.43-9.4h6.15a68.7,68.7,0,0,0,3.33-10.54l-5-3.68Zm-61.6,38.27a38.63,38.63,0,1,1,38.62-38.62A38.63,38.63,0,0,1,276.24,384.47Z"/><path class="cls-2" d="M18.85,448.18v-203a6.41,6.41,0,0,1,2.69-5.52,10.42,10.42,0,0,1,6.26-1.94H133.33a6.53,6.53,0,0,1,5.51,2.54,9.7,9.7,0,0,1,1.94,6.11,11.55,11.55,0,0,1-1.94,6.71,6.28,6.28,0,0,1-5.51,2.83H38.53v82h47.1a6.26,6.26,0,0,1,5.22,2.53,10.27,10.27,0,0,1,1.94,6.41q0,8.06-7.16,8.05H38.53v93.31a6.22,6.22,0,0,1-3,5.52,12.33,12.33,0,0,1-6.86,1.93Q18.85,455.63,18.85,448.18Z"/><path class="cls-2" d="M444.45,448.46v-203q0-6.56,7.45-7.15h52.77q28.91,0,46.65,13.71t17.74,45q0,49.5-46.51,57.54l45.91,88.24a6,6,0,0,1,1.2,3.88c0,2.58-1.2,4.91-3.58,7a11.55,11.55,0,0,1-7.75,3.13q-5.37,0-10.44-10.43L502,356.93H464.12v91.53a6.55,6.55,0,0,1-3,5.66,11.66,11.66,0,0,1-6.85,2.09,11.5,11.5,0,0,1-7-2.09A6.66,6.66,0,0,1,444.45,448.46Zm19.67-108.52h40.55q44.71,0,44.71-42,0-41.43-44.71-41.44H464.12Z"/><path class="cls-2" d="M659.38,394.2V301.78q0-32.79,16.85-48.14t44.86-15.35q28.32,0,45.32,14.45t17,37.12q0,10.14-9.84,10.14-9.54,0-9.84-7.46-4.17-36.06-42.33-36.07-42.33,0-42.33,45.31V394.2q0,22.95,11,34.28t31.3,11.33q20.28,0,31.3-11.33t11-34.28V358.72H723.78a6.22,6.22,0,0,1-5.22-2.53,9.78,9.78,0,0,1-1.94-6.11,9.36,9.36,0,0,1,1.94-5.82,6.25,6.25,0,0,1,5.22-2.53h52.47q7.14,0,7.15,7.75V394.2q0,33.09-16.84,48.44T721.39,458q-28.32,0-45.16-15.36T659.38,394.2Z"/><path class="cls-2" d="M882.67,448.46V245.74a6.4,6.4,0,0,1,2.68-5.52,10.43,10.43,0,0,1,6.26-1.93H997.74q7.44,0,7.45,8.64a11.6,11.6,0,0,1-1.94,6.71,6.28,6.28,0,0,1-5.51,2.83h-95.4v82h46.81a6.53,6.53,0,0,1,5.51,2.54,10.24,10.24,0,0,1,1.94,6.4q0,8.06-7.45,8.05H902.34V438h95.4a6.55,6.55,0,0,1,5.37,2.68,10.44,10.44,0,0,1,2.08,6.56q0,8.94-7.45,8.95H891.61a9.93,9.93,0,0,1-6.26-2.09A6.78,6.78,0,0,1,882.67,448.46Z"/></svg>