<svg id="Layer_1" data-name="Layer 1" xmlns="http://www.w3.org/2000/svg" viewBox="0 0 48.38 48.38"><defs><style>.cls-1{fill:#bd8647;}</style></defs><title>1</title><g id="cE1eRZ.tif"><path class="cls-1" d="M22.75.58A23.84,23.84,0,0,1,38.62,5.3a24.23,24.23,0,0,1,7.87,26.41A24.23,24.23,0,0,1,23.75,47.55,24.25,24.25,0,0,1,1.65,30.81a24.24,24.24,0,0,1,9.1-26.19A23.43,23.43,0,0,1,22.75.58ZM32,24c0-4,0-8,0-12A1.88,1.88,0,0,0,30,10.05q-5.85,0-11.69,0A1.85,1.85,0,0,0,16.44,12q0,12,0,24a1.88,1.88,0,0,0,1.95,2c3.88,0,7.76,0,11.65,0a2.89,2.89,0,0,0,.5,0A1.79,1.79,0,0,0,32,36C32,32,32,28,32,24Z"/><path class="cls-1" d="M17.57,22.32v-9c0-.51,0-.52.5-.52H30.36c.49,0,.5,0,.5.52V31.15c0,.62,0,.63-.64.63H18.16c-.59,0-.59,0-.59-.63V22.32Z"/><path class="cls-1" d="M24.2,36.14a1.32,1.32,0,0,1-1.33-1.3,1.35,1.35,0,1,1,2.69,0A1.32,1.32,0,0,1,24.2,36.14Z"/><path class="cls-1" d="M24.19,11.74H23.13c-.21,0-.39-.09-.35-.31a.49.49,0,0,1,.34-.28c.73,0,1.46,0,2.19,0a.43.43,0,0,1,.33.28c0,.22-.15.3-.35.3Z"/></g></svg>