<?xml version="1.0" encoding="utf-8"?>
<!-- Generator: Adobe Illustrator 22.0.1, SVG Export Plug-In . SVG Version: 6.00 Build 0)  -->
<svg version="1.1" id="Layer_1" xmlns="http://www.w3.org/2000/svg" xmlns:xlink="http://www.w3.org/1999/xlink" x="0px" y="0px"
	 viewBox="0 0 894 411" style="enable-background:new 0 0 894 411;" xml:space="preserve">
<style type="text/css">
	.st0{fill:#717071;}
	.st1{fill:#BD8648;}
	.st2{fill:#FFFFFF;}
</style>
<g id="Logo_White_FORGE_no_tagline">
	<path id="inside_gear" class="st0" d="M291.5,295.8l5-2.2c-0.1-3.3-0.4-6.6-1.1-9.8l-5.4-1.1l-3-9.2l3.7-4.1c-1.4-3-3.1-5.8-5-8.5
		l-5.4,1.2l-6.5-7.2l1.7-5.2c-2.5-2.1-5.2-4-8-5.7l-4.5,3.2l-8.8-3.9l-0.6-5.4c-3.2-0.9-6.4-1.6-9.6-2l-2.8,4.8h-9.6l-2.7-4.7
		c-3.3,0.4-6.5,1.1-9.6,2.1l-0.6,5.5l-8.8,3.9l-4.5-3.2c-2.8,1.7-5.4,3.7-7.9,5.8l1.7,5.2l-6.5,7.2l-5.3-1.1
		c-1.9,2.7-3.5,5.6-4.9,8.5l3.7,4.1l-3,9.2l-5.3,1.1c-0.6,3.2-0.9,6.5-1,9.8l5.1,2.2l1,9.6l-4.4,3.2c0.8,3.2,1.8,6.3,3.1,9.3h5.6
		l4.8,8.4l-2.6,4.7c2,2.6,4.2,5,6.6,7.3l5.1-2.3l7.8,5.7l-0.6,5.4c2.9,1.6,5.9,2.9,9,4l3.7-4.2l9.5,2l1.7,5.2
		c1.5,0.1,3.1,0.2,4.6,0.2c1.8,0,3.5-0.1,5.2-0.2l1.7-5.3l9.5-2l3.7,4c3.1-1.1,6.1-2.4,9-4l-0.6-5.5l7.8-5.7l5,2.2
		c2.4-2.3,4.6-4.7,6.6-7.3l-2.8-4.8l4.8-8.4h5.5c1.2-3,2.2-6.2,3-9.4l-4.5-3.3L291.5,295.8z M236.6,329.9c-19,0-34.4-15.4-34.4-34.4
		s15.4-34.4,34.4-34.4s34.4,15.4,34.4,34.4l0,0C271,314.5,255.6,329.9,236.6,329.9z"/>
	<path class="st1" d="M6.8,20.1c-1.6-2-1.6-5,0-7c0.8-0.9,1.9-1.5,3.1-1.4h81.4c2.9,0,4.3,1.6,4.3,4.7c0,3.4-1.4,5.1-4.3,5.1H55.9
		v135.9c0,3-1.7,4.5-5.1,4.5s-5.1-1.5-5.1-4.5V21.6H9.9C8.7,21.6,7.5,21,6.8,20.1z"/>
	<path class="st1" d="M160.2,157.5V16.2c0-3,1.6-4.5,4.9-4.5h73.2c2.9,0,4.3,1.6,4.3,4.7c0,1.3-0.4,2.6-1.2,3.6
		c-0.7,1-1.9,1.5-3.1,1.5h-67.8V82h32.7c1.2,0,2.3,0.5,3.1,1.4c0.8,1,1.3,2.2,1.2,3.5c0,3-1.4,4.5-4.3,4.5h-32.7v60.7h67.9
		c1.2,0,2.4,0.6,3.1,1.5c0.8,1,1.3,2.3,1.2,3.6c0,3.2-1.4,4.7-4.3,4.7h-73.2C161.9,162,160.2,160.5,160.2,157.5z"/>
	<path class="st1" d="M308.9,157.5V16.6c0-3.3,1.7-4.9,5.1-4.9c2.7,0,5.6,2.8,8.6,8.4l37.6,73.6L398,20.1c3-5.6,5.9-8.4,8.6-8.4
		c3.4,0,5.1,1.6,5.1,4.9v140.9c0,3-1.7,4.5-5.1,4.5s-5.1-1.5-5.1-4.5V35.1L365,105c-1.7,2.9-3.2,4.3-4.7,4.3c-1.8,0-3.4-1.4-4.7-4.3
		l-36.4-70.1v122.6c0,3-1.7,4.5-5.1,4.5S308.9,160.5,308.9,157.5z"/>
	<path class="st1" d="M489.6,157.5V16c0-2.6,1.6-4,4.7-4.3h37c12.5,0,22.5,3.5,30,10.4s11.3,17.8,11.3,32.6V57
		c0,14.8-3.8,25.7-11.4,32.7c-7.6,7-17.6,10.5-30.1,10.4h-31.3v57.4c0,3-1.7,4.5-5.1,4.5C491.3,162,489.6,160.5,489.6,157.5z
		 M499.9,90.7h31.3c10,0,17.7-2.8,23.2-8.3c5.4-5.6,8.1-13.9,8.1-25.2v-2.3c0-11.1-2.7-19.4-8.1-25s-13.1-8.3-23.2-8.3h-31.3
		L499.9,90.7L499.9,90.7z"/>
	<path class="st1" d="M641,120.1V16c0-2.9,1.7-4.3,5.1-4.3s5.1,1.4,5.1,4.3v104.1c0,11.1,2.7,19.4,8.1,25c5.4,5.5,13.1,8.3,23.2,8.3
		c10,0,17.7-2.8,23.2-8.3c5.5-5.6,8.2-13.9,8.2-25V16c0-2.9,1.7-4.3,5.1-4.3c3.4,0,5.1,1.4,5.1,4.3v104.1c0,14.9-3.8,25.9-11.4,32.8
		c-7.6,6.9-17.7,10.4-30.4,10.4c-12.6,0-22.7-3.5-30.2-10.4C644.7,145.9,641,135,641,120.1z"/>
	<path class="st1" d="M793.1,141.9c0-1.4,0.6-2.8,1.5-3.9c0.7-1.1,1.9-1.8,3.2-1.9c0.8,0,2.1,0.9,3.7,2.7l5.6,6
		c2.1,2.2,5.4,4.2,10,6c5.1,1.9,10.5,2.8,15.9,2.7c10.6,0,18.6-2.6,24.3-7.8c5.6-5.2,8.4-12.9,8.4-23c0-7.7-1.7-14.1-5.1-19.1
		c-3.1-4.8-7.5-8.6-12.8-10.9c-5.1-2.2-10.6-4.5-16.5-6.8s-11.5-4.6-16.6-6.9c-5.3-2.4-9.7-6.3-12.8-11.2
		c-3.4-5.2-5.1-11.8-5.1-19.7c0-7.1,1.3-13.2,3.9-18.2c2.3-4.7,6-8.6,10.5-11.3c4.1-2.4,8.6-4.2,13.3-5.3s9.5-1.6,14.2-1.5
		c7.8-0.1,15.5,1.1,22.9,3.6c7.1,2.4,10.7,5.1,10.7,8.1c-0.1,1.4-0.6,2.8-1.4,3.9c-0.7,1.2-1.9,2-3.3,2.1c-0.7,0-2.2-0.7-4.5-2
		c-3.2-1.6-6.5-2.9-10-3.9c-4.7-1.4-9.6-2-14.5-2c-8.9,0-16.4,2-22.4,5.9s-9,10.5-9,19.9c0,5.6,1.3,10.3,3.8,14.1
		c2.5,3.7,5.9,6.7,9.9,8.7c4.3,2.2,8.8,4,13.4,5.5c4.9,1.7,9.8,3.5,14.7,5.6c4.8,2,9.3,4.5,13.5,7.6c4.3,3.4,7.7,7.8,9.9,12.9
		c2.5,5.6,3.8,12.2,3.8,20c0,14-3.8,24.4-11.4,31.4c-7.6,6.9-17.8,10.4-30.5,10.4c-11.8,0-21.6-2.5-29.3-7.6
		C797,150.6,793.1,146,793.1,141.9z"/>
	<path id="outside_gear" class="st2" d="M330.4,296.1l8.5-3.8c-0.2-5.6-0.8-11.2-1.9-16.8l-9.3-2l-5.1-15.7l6.2-7
		c-2.4-5.1-5.3-9.9-8.5-14.5l-9.3,2L300,226l2.9-8.9c-4.3-3.6-8.8-6.9-13.7-9.8l-7.7,5.6l-15.1-6.7l-1-9.3
		c-5.4-1.6-10.9-2.7-16.5-3.4l-4.7,8.2h-16.5l-4.7-8.1c-5.6,0.7-11.1,1.9-16.5,3.6l-1,9.4l-15.1,6.7L183,208
		c-4.8,2.9-9.3,6.3-13.6,10l2.9,9l-11.1,12.3l-9.1-2c-3.2,4.6-6,9.5-8.4,14.6l6.4,7.1l-5.1,15.7l-9.1,1.9c-1,5.5-1.6,11.2-1.6,16.8
		l8.6,3.8l1.7,16.4l-7.5,5.5c1.3,5.5,3.1,10.8,5.3,16h9.5l8.3,14.3l-4.7,8.1c3.4,4.5,7.2,8.6,11.3,12.5l8.7-3.9l13.4,9.7l-1,9.3
		c4.9,2.7,10.1,4.9,15.4,6.8l6.4-7.1l16.2,3.4l2.9,8.9c2.6,0.2,5.2,0.3,7.9,0.3c3,0,6-0.1,9-0.4l2.9-9l16.2-3.4l6.2,6.9
		c5.3-1.9,10.4-4.2,15.3-6.9l-1-9.4l13.4-9.7l8.5,3.8c4.1-3.9,7.8-8.1,11.2-12.6l-4.8-8.2l8.3-14.3h9.3c2.1-5.2,3.8-10.6,5.1-16
		l-7.7-5.6L330.4,296.1z M236.6,369.1c-40.7,0-73.6-32.9-73.6-73.6s32.9-73.6,73.6-73.6s73.6,32.9,73.6,73.6l0,0
		C310.2,336.1,277.3,369.1,236.6,369.1L236.6,369.1z"/>
	<path class="st2" d="M7.4,386.6V205.8c-0.1-1.9,0.8-3.8,2.4-4.9c1.6-1.2,3.6-1.8,5.6-1.7h94c1.9-0.1,3.7,0.7,4.9,2.3
		c1.2,1.6,1.8,3.5,1.7,5.4c0.1,2.1-0.5,4.2-1.7,6c-1.1,1.6-2.9,2.6-4.9,2.5H24.9v73h41.9c1.8-0.1,3.6,0.8,4.6,2.3
		c1.2,1.7,1.8,3.7,1.7,5.7c0,4.8-2.1,7.2-6.4,7.2H24.9v83.1c0.1,2-1,3.9-2.7,4.9c-1.8,1.2-3.9,1.8-6.1,1.7
		C10.3,393.3,7.4,391.1,7.4,386.6z"/>
	<path class="st2" d="M386.4,386.9V206.1c0-3.9,2.2-6,6.6-6.4h47c17.2,0,31,4.1,41.5,12.2c10.5,8.1,15.8,21.5,15.8,40.1
		c0,29.4-13.8,46.5-41.4,51.2l40.9,78.6c0.7,1,1.1,2.2,1.1,3.5c0,2.3-1.1,4.4-3.2,6.2c-1.9,1.8-4.3,2.8-6.9,2.8
		c-3.2,0-6.3-3.1-9.3-9.3l-40.9-79.7h-33.7v81.5c0,2-1,3.9-2.7,5c-1.8,1.2-3.9,1.9-6.1,1.9c-2.2,0.1-4.4-0.6-6.2-1.9
		C387.3,390.8,386.4,388.9,386.4,386.9z M403.9,290.2H440c26.5,0,39.8-12.5,39.8-37.4c0-24.6-13.3-36.9-39.8-36.9h-36.1V290.2z"/>
	<path class="st2" d="M577.8,338.6v-82.3c0-19.5,5-33.8,15-42.9s23.3-13.7,40-13.7c16.8,0,30.3,4.3,40.4,12.9
		c10.1,8.6,15.1,19.6,15.1,33.1c0,6-2.9,9-8.8,9c-5.7,0-8.6-2.2-8.8-6.6c-2.5-21.4-15-32.1-37.7-32.1c-25.1,0-37.7,13.5-37.7,40.4
		v82.3c0,13.6,3.3,23.8,9.8,30.5s15.8,10.1,27.9,10.1c12,0,21.3-3.4,27.9-10.1c6.5-6.7,9.8-16.9,9.8-30.5V307h-35.5
		c-1.8,0.1-3.6-0.8-4.6-2.3c-1.2-1.6-1.8-3.5-1.7-5.4c0-1.9,0.6-3.7,1.7-5.2c1.1-1.5,2.8-2.3,4.6-2.3h46.7c4.2,0,6.4,2.3,6.4,6.9
		v39.8c0,19.6-5,34-15,43.1s-23.4,13.7-40.2,13.7s-30.2-4.6-40.2-13.7C582.8,372.6,577.8,358.2,577.8,338.6z"/>
	<path class="st2" d="M776.7,386.9V206.3c-0.1-1.9,0.8-3.8,2.4-4.9c1.6-1.2,3.6-1.8,5.6-1.7h94.5c4.4,0,6.6,2.6,6.6,7.7
		c0.1,2.1-0.6,4.2-1.7,6c-1.1,1.6-2.9,2.6-4.9,2.5h-85v73h41.7c1.9-0.1,3.7,0.7,4.9,2.3c1.2,1.7,1.8,3.7,1.7,5.7
		c0,4.8-2.2,7.2-6.6,7.2h-41.7v73.5h85c1.9,0,3.7,0.9,4.8,2.4c1.3,1.7,1.9,3.7,1.9,5.8c0,5.3-2.2,8-6.6,8h-94.5c-2,0-4-0.6-5.6-1.9
		C777.5,390.7,776.6,388.9,776.7,386.9z"/>
</g>
</svg>
