<svg id="Layer_1" data-name="Layer 1" xmlns="http://www.w3.org/2000/svg" viewBox="0 0 605.77 629.21"><defs><style>.cls-1{opacity:0.1;}.cls-2{fill:#4e4c4d;}.cls-3{fill:#be8748;}</style></defs><title>transparent-gear</title><g class="cls-1"><path id="outer_ring" data-name="outer ring" class="cls-2" d="M657.7,288.71l28-12.5a331.17,331.17,0,0,0-6.06-55.13l-30.55-6.5L632.25,162.8l20.58-22.87a332.93,332.93,0,0,0-28-47.83l-30.55,6.49L557.79,58.12,567.24,29a339.65,339.65,0,0,0-45-32.41L497,14.92,447.19-7.28,444-37.78a326.23,326.23,0,0,0-54.32-11.17l-15.61,27H319.61L304.23-48.52a335.83,335.83,0,0,0-54.17,11.74L246.81-5.65,197,16.49l-24.82-18a333.76,333.76,0,0,0-44.68,32.84L137.17,61,100.7,101.51l-30-6.4a322,322,0,0,0-27.5,48.16l20.91,23.25L47.29,218.31,17.22,224.7a333.9,333.9,0,0,0-5.4,55.23l28.5,12.65L46,346.76l-24.87,18a334.63,334.63,0,0,0,17.38,52.7H69.82l27.26,47.16L81.75,491.2a330.42,330.42,0,0,0,37.33,41l28.5-12.7,44,32-3.19,30.6a339.16,339.16,0,0,0,50.74,22.29l20.95-23.3,53.32,11.36,9.45,29.17c8.54.67,17.23,1,25.92,1q14.9,0,29.5-1.29L388,591.67l53.31-11.31,20.58,22.82a334.73,334.73,0,0,0,50.5-22.82l-3.3-31.12,44.06-32,28.07,12.51a347.1,347.1,0,0,0,36.9-41.44l-15.66-27.06,27.3-47.16h30.74a336.19,336.19,0,0,0,16.8-52.79L652,342.89ZM348.77,529.29c-133.89,0-242.43-108.55-242.43-242.44S214.88,44.42,348.77,44.42,591.2,153,591.2,286.85,482.66,529.29,348.77,529.29Z"/><path id="inner_ring" data-name="inner ring" class="cls-3" d="M529.49,288l16.37-7.3a194.12,194.12,0,0,0-3.53-32.27l-17.86-3.82-9.88-30.31,12-13.36a195.29,195.29,0,0,0-16.37-28l-17.9,3.82L471,153l5.59-17a197.37,197.37,0,0,0-26.35-19l-14.8,10.74-29.11-13-1.87-17.86a195.2,195.2,0,0,0-31.79-6.54l-9.11,15.8H331.68l-9-15.51A195,195,0,0,0,291,97.54l-1.91,18.19-29.11,13-14.51-10.55a197.81,197.81,0,0,0-26.16,19.24L225,154.73,203.66,178.4l-17.56-3.72A195.16,195.16,0,0,0,170,202.84l12.27,13.61-9.88,30.31-17.57,3.72a200.21,200.21,0,0,0-3.2,32.31l16.66,7.4,3.34,31.7-14.51,10.55a192.94,192.94,0,0,0,10.17,30.83h18.28l15.94,27.59-9,15.52a196.44,196.44,0,0,0,21.86,24l16.66-7.44,25.78,18.76L255,459.6a197.28,197.28,0,0,0,29.69,13L296.93,459l31.17,6.59,5.54,17.09c5,.38,10.07.57,15.13.57,5.82,0,11.6-.24,17.28-.71l5.68-17.38,31.17-6.63,12,13.36a191.75,191.75,0,0,0,29.54-13.36l-1.91-18.19,25.78-18.76,16.42,7.31a201.73,201.73,0,0,0,21.58-24.25l-9.17-15.8,15.94-27.59h18a193.89,193.89,0,0,0,9.83-30.89l-14.8-10.78ZM348.77,400.17A113.32,113.32,0,1,1,462.09,286.85,113.33,113.33,0,0,1,348.77,400.17Z"/></g></svg>