<svg id="Layer_1" data-name="Layer 1" xmlns="http://www.w3.org/2000/svg" xmlns:xlink="http://www.w3.org/1999/xlink" viewBox="0 0 629.97 626.97"><defs><style>.cls-1{fill:none;}.cls-2{opacity:0.1;}.cls-3{clip-path:url(#clip-path);}.cls-4{fill:#4e4d4e;}.cls-5{fill:#be8748;}</style><clipPath id="clip-path"><rect class="cls-1" width="629.7" height="626.97"/></clipPath></defs><title>transparent-gear</title><g class="cls-2"><g class="cls-3"><path id="outer_ring" data-name="outer ring" class="cls-4" d="M729.24,328l31.24-14a376.39,376.39,0,0,0-6.77-61.64l-34.15-7.24-18.75-57.89,23-25.56a376.89,376.89,0,0,0-31.24-53.47l-34.15,7.23L617.67,70.22l10.41-32.59A379.22,379.22,0,0,0,577.74,1.19L549.52,21.7,493.87-3.08l-3.59-34.1a360.59,360.59,0,0,0-60.76-12.49L412.08-19.48H351.27L334.09-49.21a372.29,372.29,0,0,0-60.6,13.12L269.9-1.26,214.2,23.47l-27.75-20a374.55,374.55,0,0,0-49.93,36.44L147.3,73.14l-40.77,45.24L73,111.2a360.75,360.75,0,0,0-30.72,53.88l23.38,26-18.85,58.2-33.63,7.14a370.69,370.69,0,0,0-6.14,61.74l31.86,14.16,6.35,60.55-27.8,20.2A371.29,371.29,0,0,0,37,472H72l30.45,52.69L85.14,554.39a370.31,370.31,0,0,0,41.65,45.87l31.86-14.21L208,621.86l-3.07,34.21A380.84,380.84,0,0,0,261.57,681L285,655l59.61,12.7L355,700.32c9.58.73,19.27,1.09,29,1.09q16.61,0,33-1.4l10.83-33.22,59.5-12.54,23,25.51a370.84,370.84,0,0,0,56.49-25.51l-3.7-34.78,49.25-35.82,31.24,14a386.13,386.13,0,0,0,41.23-46.28L667.34,521l30.51-52.68h34.41a378.22,378.22,0,0,0,18.74-59l-28.27-20.83ZM383.86,597c-149.68,0-271-121.35-271-271s121.35-271,271-271,271,121.34,271,271-121.35,271-271,271Z"/><path id="inner_ring" data-name="inner ring" class="cls-5" d="M585.91,327.2,604.19,319A215.27,215.27,0,0,0,600.28,283l-20-4.27-11-33.9,13.43-14.94a218.6,218.6,0,0,0-18.27-31.23l-20.05,4.27-23.84-26.5,6.25-19.06a219.25,219.25,0,0,0-29.47-21.19l-16.56,12-32.59-14.48-2.08-20a222.61,222.61,0,0,0-35.51-7.29L400.21,124H364.76l-10.05-17.33a216.27,216.27,0,0,0-35.3,7.65l-2.13,20.3-32.7,14.63-16.19-11.92a219.36,219.36,0,0,0-29.26,21.55l6.36,19.37L221.64,204.7,202,200.53a220.25,220.25,0,0,0-18,31.5l13.75,15.2-11.14,33.89L167,285.29a223.46,223.46,0,0,0-3.54,36.13l18.59,8.28,3.74,35.4-16.24,11.82A220.81,220.81,0,0,0,181,411.38h20.41l17.86,30.87L209.2,459.59a220,220,0,0,0,24.42,26.81l18.63-8.33L281.1,498.9l-2.09,20a218.19,218.19,0,0,0,33.17,14.52l13.74-15.2,34.83,7.4,6.19,19.26c5.63.41,11.25.62,16.92.62,6.51,0,13-.26,19.32-.78l6.35-19.42,34.83-7.44,13.48,14.94a214.38,214.38,0,0,0,33-14.94l-2.13-20.31,28.84-20.82,18.32,8.17A230.28,230.28,0,0,0,560,457.82l-10.41-17.65,17.8-30.87h20.15a217.53,217.53,0,0,0,11-34.52l-16.4-12.08Zm-202,125.41A126.67,126.67,0,1,1,510.53,326,126.66,126.66,0,0,1,383.86,452.61Z"/></g></g></svg>