<svg id="Layer_1" data-name="Layer 1" xmlns="http://www.w3.org/2000/svg" viewBox="0 0 48 48.25"><defs><style>.cls-1{fill:#bd8647;}</style></defs><title>1</title><g id="kftRnp.tif"><path class="cls-1" d="M22.83.72H25a2.51,2.51,0,0,0,.27,0,21.69,21.69,0,0,1,4.31.65,23.53,23.53,0,0,1,17.75,20.8c0,.31.06.62.09.93V25.3a1.84,1.84,0,0,0,0,.25,22.57,22.57,0,0,1-1.12,6A23.49,23.49,0,0,1,25.91,47.62l-.92.1H22.83l-.28,0a22.33,22.33,0,0,1-4.3-.64A23.52,23.52,0,0,1,.5,26.22L.41,25.3V23.14c0-.1,0-.19,0-.28a21.8,21.8,0,0,1,.65-4.31A23.53,23.53,0,0,1,21.9.81ZM23.9,34.06h9.89A4.19,4.19,0,0,0,38,29.87V18.57a4.18,4.18,0,0,0-4.2-4.19H14a4.18,4.18,0,0,0-4.19,4.19V29.83a4.19,4.19,0,0,0,4.23,4.23Z"/><path class="cls-1" d="M29.09,23.68l-8,5.25V18.43Z"/></g></svg>